<svg xmlns="http://www.w3.org/2000/svg"  viewBox="0 0 40 40" width="40px" height="40px"><path fill="#98ccfd" d="M39.291,25.787l-2.976-2.45C36.424,22.572,36.5,21.796,36.5,21c0-6.944-4.295-12.875-10.368-15.31	L25.5,1.9h-11l-0.632,3.79C7.795,8.125,3.5,14.056,3.5,21c0,0.796,0.076,1.572,0.184,2.337l-2.976,2.45l5.5,9.526l3.604-1.35	C12.62,36.172,16.152,37.5,20,37.5s7.38-1.328,10.187-3.537l3.604,1.35L39.291,25.787z"/><path fill="#4788c7" d="M20,38c-3.743,0-7.289-1.199-10.273-3.471L5.987,35.93L0.064,25.67l3.087-2.542	C3.048,22.343,3,21.661,3,21C3,14.114,7.081,7.995,13.421,5.333L14.076,1.4h11.848l0.655,3.934C32.919,7.995,37,14.114,37,21	c0,0.661-0.048,1.343-0.151,2.129l3.087,2.542L34.013,35.93l-3.739-1.401C27.289,36.801,23.743,38,20,38z M9.9,33.396l0.222,0.174	C12.974,35.814,16.39,37,20,37s7.026-1.186,9.878-3.43l0.222-0.174l3.47,1.3l5.077-8.792l-2.866-2.359l0.04-0.278	C35.943,22.409,36,21.689,36,21c0-6.569-3.946-12.396-10.055-14.846L25.685,6.05L25.076,2.4H14.924l-0.608,3.65l-0.261,0.104	C7.946,8.604,4,14.431,4,21c0,0.689,0.057,1.409,0.18,2.267l0.04,0.278l-2.866,2.359l5.077,8.792L9.9,33.396z"/><path fill="#fff" d="M20,32c-6.065,0-11-4.935-11-11s4.935-11,11-11s11,4.935,11,11S26.065,32,20,32z M20,12	c-4.963,0-9,4.038-9,9s4.037,9,9,9s9-4.038,9-9S24.963,12,20,12z"/><polygon fill="#fff" points="21,16 20,17 19,16 19,7.043 21,7.043"/><polygon fill="#fff" points="17.6,16 22.4,16 20,20"/><polygon fill="#fff" points="15.17,22.634 16.536,23 16.17,24.366 8.413,28.844 7.413,27.112"/><polygon fill="#fff" points="16.87,25.578 14.47,21.422 19.134,21.5"/><polygon fill="#fff" points="23.83,24.366 23.464,23 24.83,22.634 32.587,27.112 31.587,28.844"/><polygon fill="#fff" points="25.53,21.422 23.13,25.578 20.866,21.5"/></svg>